<mxfile host="app.diagrams.net" agent="Mozilla/5.0 (Macintosh; Intel Mac OS X 10_15_7) AppleWebKit/537.36 (KHTML, like Gecko) Chrome/130.0.0.0 Safari/537.36" version="24.8.4">
  <diagram name="Page-1" id="ZrmdCe9BaSb3PpMmNUtp">
    <mxGraphModel dx="1194" dy="535" grid="1" gridSize="10" guides="1" tooltips="1" connect="1" arrows="1" fold="1" page="1" pageScale="1" pageWidth="850" pageHeight="1100" math="0" shadow="0">
      <root>
        <mxCell id="0" />
        <mxCell id="1" parent="0" />
        <mxCell id="kn3H5CUmmWQH56Dbjs0w-1" value="GuidenceHUB" style="shape=umlFrame;whiteSpace=wrap;html=1;pointerEvents=0;width=90;height=30;" vertex="1" parent="1">
          <mxGeometry x="210" y="30" width="350" height="470" as="geometry" />
        </mxCell>
        <mxCell id="kn3H5CUmmWQH56Dbjs0w-2" value="&lt;b&gt;&lt;i&gt;Personal Supervisor&lt;/i&gt;&lt;/b&gt;" style="shape=umlActor;verticalLabelPosition=bottom;verticalAlign=top;html=1;" vertex="1" parent="1">
          <mxGeometry x="40" y="110" width="120" height="280" as="geometry" />
        </mxCell>
        <mxCell id="kn3H5CUmmWQH56Dbjs0w-3" value="&lt;font style=&quot;font-size: 9px;&quot;&gt;Log in&lt;/font&gt;" style="ellipse;whiteSpace=wrap;html=1;" vertex="1" parent="1">
          <mxGeometry x="230" y="110" width="50" height="30" as="geometry" />
        </mxCell>
        <mxCell id="kn3H5CUmmWQH56Dbjs0w-4" value="&lt;font style=&quot;font-size: 8px;&quot;&gt;Verify Password&lt;/font&gt;" style="ellipse;whiteSpace=wrap;html=1;" vertex="1" parent="1">
          <mxGeometry x="360" y="60" width="80" height="30" as="geometry" />
        </mxCell>
        <mxCell id="kn3H5CUmmWQH56Dbjs0w-5" value="&lt;font style=&quot;font-size: 8px;&quot;&gt;Display Log in Error&lt;/font&gt;" style="ellipse;whiteSpace=wrap;html=1;" vertex="1" parent="1">
          <mxGeometry x="350" y="120" width="90" height="40" as="geometry" />
        </mxCell>
        <mxCell id="kn3H5CUmmWQH56Dbjs0w-6" value="&amp;lt;&amp;lt;include&amp;gt;&amp;gt;" style="endArrow=open;endSize=12;dashed=1;html=1;rounded=0;exitX=1;exitY=0;exitDx=0;exitDy=0;entryX=0;entryY=0.5;entryDx=0;entryDy=0;" edge="1" parent="1" source="kn3H5CUmmWQH56Dbjs0w-3" target="kn3H5CUmmWQH56Dbjs0w-4">
          <mxGeometry width="160" relative="1" as="geometry">
            <mxPoint x="340" y="270" as="sourcePoint" />
            <mxPoint x="500" y="270" as="targetPoint" />
          </mxGeometry>
        </mxCell>
        <mxCell id="kn3H5CUmmWQH56Dbjs0w-7" value="&amp;lt;&amp;lt;extend&amp;gt;&amp;gt;" style="endArrow=open;endSize=12;dashed=1;html=1;rounded=0;exitX=0;exitY=0.5;exitDx=0;exitDy=0;entryX=1;entryY=1;entryDx=0;entryDy=0;" edge="1" parent="1" source="kn3H5CUmmWQH56Dbjs0w-5" target="kn3H5CUmmWQH56Dbjs0w-3">
          <mxGeometry width="160" relative="1" as="geometry">
            <mxPoint x="340" y="270" as="sourcePoint" />
            <mxPoint x="500" y="270" as="targetPoint" />
          </mxGeometry>
        </mxCell>
        <mxCell id="kn3H5CUmmWQH56Dbjs0w-8" value="" style="endArrow=none;html=1;rounded=0;exitX=0.5;exitY=0.5;exitDx=0;exitDy=0;exitPerimeter=0;entryX=0;entryY=0.5;entryDx=0;entryDy=0;" edge="1" parent="1" source="kn3H5CUmmWQH56Dbjs0w-2" target="kn3H5CUmmWQH56Dbjs0w-3">
          <mxGeometry width="50" height="50" relative="1" as="geometry">
            <mxPoint x="400" y="300" as="sourcePoint" />
            <mxPoint x="450" y="250" as="targetPoint" />
          </mxGeometry>
        </mxCell>
        <mxCell id="kn3H5CUmmWQH56Dbjs0w-9" value="&lt;font style=&quot;font-size: 10px;&quot;&gt;Send message to student&lt;/font&gt;" style="ellipse;whiteSpace=wrap;html=1;" vertex="1" parent="1">
          <mxGeometry x="225" y="180" width="95" height="50" as="geometry" />
        </mxCell>
        <mxCell id="kn3H5CUmmWQH56Dbjs0w-11" value="" style="endArrow=none;html=1;rounded=0;exitX=0.5;exitY=0.5;exitDx=0;exitDy=0;exitPerimeter=0;entryX=0;entryY=0.5;entryDx=0;entryDy=0;" edge="1" parent="1" source="kn3H5CUmmWQH56Dbjs0w-2" target="kn3H5CUmmWQH56Dbjs0w-9">
          <mxGeometry width="50" height="50" relative="1" as="geometry">
            <mxPoint x="400" y="300" as="sourcePoint" />
            <mxPoint x="450" y="250" as="targetPoint" />
          </mxGeometry>
        </mxCell>
        <mxCell id="kn3H5CUmmWQH56Dbjs0w-12" value="" style="endArrow=none;html=1;rounded=0;exitX=0.5;exitY=0.5;exitDx=0;exitDy=0;exitPerimeter=0;entryX=0;entryY=0.5;entryDx=0;entryDy=0;" edge="1" parent="1" source="kn3H5CUmmWQH56Dbjs0w-2" target="kn3H5CUmmWQH56Dbjs0w-15">
          <mxGeometry width="50" height="50" relative="1" as="geometry">
            <mxPoint x="135" y="200" as="sourcePoint" />
            <mxPoint x="228" y="320" as="targetPoint" />
          </mxGeometry>
        </mxCell>
        <mxCell id="kn3H5CUmmWQH56Dbjs0w-15" value="&lt;font style=&quot;font-size: 10px;&quot;&gt;Send message to ST&lt;/font&gt;" style="ellipse;whiteSpace=wrap;html=1;" vertex="1" parent="1">
          <mxGeometry x="225" y="250" width="95" height="50" as="geometry" />
        </mxCell>
        <mxCell id="kn3H5CUmmWQH56Dbjs0w-20" value="" style="endArrow=none;html=1;rounded=0;exitX=0.5;exitY=0.5;exitDx=0;exitDy=0;exitPerimeter=0;entryX=0;entryY=0.5;entryDx=0;entryDy=0;" edge="1" parent="1" target="kn3H5CUmmWQH56Dbjs0w-21" source="kn3H5CUmmWQH56Dbjs0w-2">
          <mxGeometry width="50" height="50" relative="1" as="geometry">
            <mxPoint x="100" y="320" as="sourcePoint" />
            <mxPoint x="228" y="390" as="targetPoint" />
          </mxGeometry>
        </mxCell>
        <mxCell id="kn3H5CUmmWQH56Dbjs0w-21" value="&lt;font style=&quot;font-size: 8px;&quot;&gt;Book a meeting with student&lt;/font&gt;" style="ellipse;whiteSpace=wrap;html=1;" vertex="1" parent="1">
          <mxGeometry x="225" y="320" width="95" height="50" as="geometry" />
        </mxCell>
        <mxCell id="kn3H5CUmmWQH56Dbjs0w-22" value="" style="endArrow=none;html=1;rounded=0;exitX=0.5;exitY=0.5;exitDx=0;exitDy=0;exitPerimeter=0;entryX=0;entryY=0.5;entryDx=0;entryDy=0;" edge="1" parent="1" target="kn3H5CUmmWQH56Dbjs0w-23" source="kn3H5CUmmWQH56Dbjs0w-2">
          <mxGeometry width="50" height="50" relative="1" as="geometry">
            <mxPoint x="100" y="310" as="sourcePoint" />
            <mxPoint x="228" y="450" as="targetPoint" />
          </mxGeometry>
        </mxCell>
        <mxCell id="kn3H5CUmmWQH56Dbjs0w-23" value="&lt;span style=&quot;font-size: 10px;&quot;&gt;Check Inbox&lt;/span&gt;" style="ellipse;whiteSpace=wrap;html=1;" vertex="1" parent="1">
          <mxGeometry x="225" y="380" width="95" height="50" as="geometry" />
        </mxCell>
      </root>
    </mxGraphModel>
  </diagram>
</mxfile>
